HIERARCHY
ROOT Hips
{
	OFFSET -0.001795 -0.223333 0.028219
	CHANNELS 6 Xposition Yposition Zposition Zrotation Yrotation Xrotation 
	JOINT LeftUpLeg
	{
		OFFSET 0.069520 -0.091406 -0.006815
		CHANNELS 3 Zrotation Yrotation Xrotation
		JOINT LeftLeg
		{
			OFFSET 0.034277 -0.375199 -0.004496
			CHANNELS 3 Zrotation Yrotation Xrotation
			JOINT LeftFoot
			{
				OFFSET -0.013596 -0.397961 -0.043693
				CHANNELS 3 Zrotation Yrotation Xrotation
				JOINT LeftToe
				{
					OFFSET 0.026358 -0.055791 0.119288
					CHANNELS 3 Zrotation Yrotation Xrotation
					End Site
					{
						OFFSET 0.000000 0.000000 0.000000
					}
				}
			}
		}
	}
	JOINT RightUpLeg
	{
		OFFSET -0.067670 -0.090522 -0.004320
		CHANNELS 3 Zrotation Yrotation Xrotation
		JOINT RightLeg
		{
			OFFSET -0.038290 -0.382569 -0.008850
			CHANNELS 3 Zrotation Yrotation Xrotation
			JOINT RightFoot
			{
				OFFSET 0.015774 -0.398415 -0.042312
				CHANNELS 3 Zrotation Yrotation Xrotation
				JOINT RightToe
				{
					OFFSET -0.025372 -0.048144 0.123348
					CHANNELS 3 Zrotation Yrotation Xrotation
					End Site
					{
						OFFSET 0.000000 0.000000 0.000000
					}
				}
			}
		}
	}
	JOINT Spine
	{
		OFFSET -0.002533 0.108963 -0.026696
		CHANNELS 3 Zrotation Yrotation Xrotation
		JOINT Spine1
		{
			OFFSET 0.005487 0.135180 0.001092
			CHANNELS 3 Zrotation Yrotation Xrotation
			JOINT Spine2
			{
				OFFSET 0.001457 0.052922 0.025425
				CHANNELS 3 Zrotation Yrotation Xrotation
				JOINT Neck
				{
					OFFSET -0.002778 0.213870 -0.042857
					CHANNELS 3 Zrotation Yrotation Xrotation
					JOINT Head
					{
						OFFSET 0.005152 0.064970 0.051349
						CHANNELS 3 Zrotation Yrotation Xrotation
						End Site
						{
							OFFSET 0.000000 0.000000 0.000000
						}
					}
				}
				JOINT LeftShoulder
				{
					OFFSET 0.078845 0.121749 -0.034090
					CHANNELS 3 Zrotation Yrotation Xrotation
					JOINT LeftArm
					{
						OFFSET 0.090977 0.030469 -0.008868
						CHANNELS 3 Zrotation Yrotation Xrotation
						JOINT LeftForeArm
						{
							OFFSET 0.259612 -0.012772 -0.027456
							CHANNELS 3 Zrotation Yrotation Xrotation
							JOINT LeftHand
							{
								OFFSET 0.249234 0.008986 -0.001171
								CHANNELS 3 Zrotation Yrotation Xrotation
								End Site
								{
									OFFSET 0.000000 0.000000 0.000000
								}
							}
						}
					}
				}
				JOINT RightShoulder
				{
					OFFSET -0.081759 0.118833 -0.038615
					CHANNELS 3 Zrotation Yrotation Xrotation
					JOINT RightArm
					{
						OFFSET -0.096012 0.032551 -0.009143
						CHANNELS 3 Zrotation Yrotation Xrotation
						JOINT RightForeArm
						{
							OFFSET -0.253742 -0.013329 -0.021401
							CHANNELS 3 Zrotation Yrotation Xrotation
							JOINT RightHand
							{
								OFFSET -0.255298 0.007772 -0.005559
								CHANNELS 3 Zrotation Yrotation Xrotation
								End Site
								{
									OFFSET 0.000000 0.000000 0.000000
								}
							}
						}
					}
				}
			}
		}
	}
}
MOTION
Frames: 16
Frame Time: 0.050000
-0.505077 0.834950 -2.439768 -1.898339 32.627091 -8.397294 16.669886 -2.643019 -33.216372 -16.561096 -0.743345 49.572431 4.725172 15.027354 14.077334 0.000000 0.000000 0.000000 -9.914267 -2.340924 -22.418456 3.597489 -9.218553 49.090142 -4.759600 -12.421739 -13.207153 0.000000 0.000000 0.000000 -10.307071 -2.568970 35.939825 -3.387289 2.344592 -11.586106 0.107635 12.766202 22.958866 -2.083903 5.665902 -13.326058 0.000000 0.000000 0.000000 -8.609503 -37.430615 10.263519 11.286205 -36.545541 -6.266254 61.115210 -18.369132 -14.280499 0.000000 0.000000 0.000000 -28.638481 31.583950 -0.450259 -24.757662 25.738343 -1.186701 -76.683875 -0.978710 8.148651 0.000000 0.000000 0.000000 
-0.502221 0.834192 -2.441574 -1.457777 31.891601 -7.831411 16.933674 -2.586496 -33.631868 -17.508347 -0.129789 50.084700 4.432621 14.424280 13.740458 0.000000 0.000000 0.000000 -10.006468 -2.346260 -22.780392 2.794141 -8.810258 50.420940 -4.251618 -10.521311 -15.404281 0.000000 0.000000 0.000000 -10.078291 -2.436300 35.378325 -3.419157 2.332620 -11.691812 -0.793884 12.672207 22.981332 -1.923711 5.357686 -12.147813 0.000000 0.000000 0.000000 -8.081054 -37.375227 10.286161 10.289701 -35.971535 -5.873692 60.460584 -17.157473 -13.491380 0.000000 0.000000 0.000000 -28.476577 30.647007 -0.545010 -24.964622 23.946290 -0.816027 -77.809829 -2.412024 9.579043 0.000000 0.000000 0.000000 
-0.499404 0.833034 -2.441173 -0.857791 31.093308 -7.339537 17.448328 -2.447376 -33.953032 -18.502091 0.622948 49.861934 3.616144 13.781149 16.226160 0.000000 0.000000 0.000000 -10.082153 -2.360439 -23.344412 1.677440 -8.473561 53.130821 -3.890502 -8.522053 -17.726311 0.000000 0.000000 0.000000 -9.771713 -2.319685 34.873987 -3.464441 2.324357 -11.614030 -1.762534 13.031221 23.044246 -2.144894 5.282570 -10.777659 0.000000 0.000000 0.000000 -8.530234 -37.326121 10.291480 9.495720 -35.861746 -5.620202 60.291970 -17.424584 -13.579400 0.000000 0.000000 0.000000 -28.160810 29.664934 -0.624634 -25.393678 22.940210 -0.571609 -78.657066 -2.869188 10.201047 0.000000 0.000000 0.000000 
-0.496457 0.830933 -2.438531 -0.477660 30.283556 -7.050497 17.255438 -2.379001 -34.005499 -19.525750 1.299739 50.328660 5.916598 17.036846 16.752396 0.000000 0.000000 0.000000 -9.791943 -2.218378 -23.668721 0.537272 -8.303100 56.637756 -3.837727 -7.004161 -20.846691 0.000000 0.000000 0.000000 -9.376762 -2.265515 34.564450 -4.265153 2.578148 -11.770258 -2.482186 12.672961 23.138941 -1.864365 4.860607 -9.812346 0.000000 0.000000 0.000000 -7.806013 -36.523019 10.101329 8.022492 -36.095762 -5.288295 60.704162 -17.743860 -14.001074 0.000000 0.000000 0.000000 -27.552695 29.030387 -0.519507 -26.380954 22.330646 -0.458916 -79.576561 -3.609236 10.640541 0.000000 0.000000 0.000000 
-0.493340 0.827611 -2.434488 -0.121589 29.981125 -6.925117 17.381739 -2.315954 -34.006278 -20.878384 2.041603 50.524606 7.721493 19.561686 17.739356 0.000000 0.000000 0.000000 -9.664886 -2.141375 -23.674498 -0.356483 -8.429846 60.137706 -4.071530 -6.341990 -23.776157 0.000000 0.000000 0.000000 -9.692165 -2.139441 34.546569 -4.726959 2.725000 -11.131125 -2.700538 13.097008 22.623400 -1.455534 4.510581 -9.647379 0.000000 0.000000 0.000000 -7.693658 -36.411193 10.056847 7.013130 -36.332676 -5.061599 60.842584 -19.525289 -15.120850 0.000000 0.000000 0.000000 -27.053509 28.475658 -0.393285 -27.316093 21.925426 -0.369105 -79.731860 -3.197342 10.261260 0.000000 0.000000 0.000000 
-0.490022 0.824377 -2.430174 0.191510 29.162914 -6.631347 17.527555 -2.177029 -34.020942 -22.227559 2.951428 49.981831 11.225676 24.115286 21.063328 0.000000 0.000000 0.000000 -9.699433 -2.058327 -23.663969 -0.789119 -8.310217 62.474532 -4.283338 -5.434690 -26.288330 0.000000 0.000000 0.000000 -9.926883 -1.933326 34.200258 -5.604337 2.998401 -11.166323 -2.769389 13.331013 23.052567 -2.006555 4.917285 -9.610655 0.000000 0.000000 0.000000 -7.589800 -34.975585 9.550774 4.701913 -37.499106 -4.695486 61.241880 -21.820174 -16.737980 0.000000 0.000000 0.000000 -27.131505 28.524844 -0.463615 -28.574806 21.903733 -0.335297 -77.299468 -0.459912 7.499977 0.000000 0.000000 0.000000 
-0.486214 0.821515 -2.426210 0.549980 28.570728 -5.909250 17.502405 -2.154926 -34.412526 -22.946265 3.504673 49.266942 14.027625 27.243455 24.633931 0.000000 0.000000 0.000000 -9.888601 -2.145930 -24.459883 -1.241747 -7.866525 63.611702 -4.374994 -4.989881 -26.975445 0.000000 0.000000 0.000000 -10.199568 -1.753448 34.025258 -6.656476 3.326082 -11.388054 -2.800709 13.373880 23.034167 -1.668619 4.752267 -10.218331 0.000000 0.000000 0.000000 -7.817556 -33.903546 9.211600 1.863958 -38.360077 -4.056423 62.646960 -24.959466 -19.186636 0.000000 0.000000 0.000000 -27.340670 28.139980 -0.597020 -29.470626 22.244273 -0.391631 -73.623723 2.404234 4.774987 0.000000 0.000000 0.000000 
-0.482123 0.819387 -2.422690 1.049529 28.654681 -5.269641 17.106848 -2.274490 -34.749663 -23.169649 3.618447 48.332772 16.097947 29.173682 28.965581 0.000000 0.000000 0.000000 -10.563147 -2.353977 -24.357580 -1.457736 -7.757548 64.043646 -4.417889 -4.387801 -28.109893 0.000000 0.000000 0.000000 -10.124715 -1.742394 33.864865 -7.458604 3.571750 -11.389330 -3.122110 13.660487 23.303318 -1.476049 4.776131 -10.868799 0.000000 0.000000 0.000000 -9.483109 -33.627782 9.015016 -0.877649 -38.615289 -3.236556 62.607970 -28.291385 -21.169686 0.000000 0.000000 0.000000 -28.677739 27.933047 -1.176502 -29.800104 22.579941 -0.343531 -68.368295 6.633964 1.722663 0.000000 0.000000 0.000000 
-0.478108 0.818092 -2.419152 1.576208 28.967889 -4.550535 16.851632 -2.429668 -35.282330 -23.485266 3.728351 47.609951 17.195162 29.880396 33.315506 0.000000 0.000000 0.000000 -11.049046 -2.602823 -24.819484 -1.843913 -7.534923 64.333568 -4.451135 -4.672108 -27.916420 0.000000 0.000000 0.000000 -10.546169 -1.744629 34.647604 -8.528432 3.890698 -11.944432 -3.254725 13.960962 22.793351 -1.082799 4.423820 -10.488548 0.000000 0.000000 0.000000 -10.525897 -33.371621 8.815764 -4.687400 -38.689307 -2.098546 64.052005 -31.546154 -23.958136 0.000000 0.000000 0.000000 -29.422172 28.037122 -1.430829 -30.285112 22.225644 -0.145684 -63.939840 9.778805 -0.266086 0.000000 0.000000 0.000000 
-0.474742 0.817069 -2.415519 1.957896 29.678464 -4.033479 16.684037 -2.614465 -35.742893 -23.856787 3.748239 46.926203 18.230363 30.404299 37.528192 0.000000 0.000000 0.000000 -11.450842 -2.802841 -24.756968 -2.445464 -7.393179 64.766635 -4.421793 -4.379075 -28.225068 0.000000 0.000000 0.000000 -10.810263 -1.840757 35.443807 -9.668360 4.229318 -12.345172 -3.201528 14.259607 22.545368 -0.456952 3.958287 -10.269863 0.000000 0.000000 0.000000 -11.835009 -33.906132 8.909380 -6.998745 -38.457999 -1.323324 63.903106 -33.783407 -25.313368 0.000000 0.000000 0.000000 -30.071687 27.673734 -1.723166 -31.159861 22.606186 -0.156935 -58.901923 11.770111 -1.345100 0.000000 0.000000 0.000000 
-0.472111 0.816731 -2.412192 2.038691 30.690196 -3.598166 16.618384 -2.805809 -35.995274 -24.276977 3.686640 46.680490 18.139917 30.590083 36.747893 0.000000 0.000000 0.000000 -11.833393 -2.973001 -24.317989 -1.963480 -8.116168 64.124058 -4.528165 -5.536791 -28.378115 0.000000 0.000000 0.000000 -11.202722 -1.978565 36.381050 -10.275865 4.390976 -12.791856 -3.285229 14.663303 22.039874 -0.288142 3.790820 -9.929150 0.000000 0.000000 0.000000 -13.700844 -34.645203 8.975817 -8.782865 -37.787887 -0.592925 64.253646 -35.853006 -26.825725 0.000000 0.000000 0.000000 -30.942560 27.589878 -2.089179 -31.217681 22.064491 0.157738 -56.676940 12.674978 -1.574023 0.000000 0.000000 0.000000 
-0.470152 0.816135 -2.409204 2.232514 31.305497 -3.084817 16.691480 -2.964149 -36.592742 -24.907903 3.859131 46.852609 18.028058 30.490916 37.002174 0.000000 0.000000 0.000000 -12.059509 -3.110523 -24.314917 -2.101952 -8.396528 64.694861 -4.606915 -5.689350 -28.887068 0.000000 0.000000 0.000000 -11.722418 -2.071732 37.620481 -11.200225 4.616735 -13.496569 -3.200454 15.154634 21.765793 0.178046 3.564767 -10.367575 0.000000 0.000000 0.000000 -13.674483 -35.225095 9.132430 -9.924365 -37.925981 -0.284998 64.280031 -36.410807 -27.340154 0.000000 0.000000 0.000000 -31.130238 27.023083 -2.233507 -32.182273 21.934829 0.277859 -54.015235 12.358746 -1.348982 0.000000 0.000000 0.000000 
-0.468063 0.816592 -2.406565 2.300621 32.387695 -2.886322 16.290264 -3.229693 -36.865742 -24.827144 3.563795 47.052135 17.693186 30.333081 36.618395 0.000000 0.000000 0.000000 -12.098160 -3.204393 -24.080630 -2.139502 -8.862825 64.648566 -4.701418 -6.947434 -28.441182 0.000000 0.000000 0.000000 -11.986084 -2.299783 38.714634 -11.888077 4.793642 -13.814595 -2.977593 15.340188 21.531111 0.472358 3.575682 -11.310210 0.000000 0.000000 0.000000 -13.953270 -36.020474 9.377459 -9.981523 -38.037778 -0.213323 63.591020 -36.710586 -27.210863 0.000000 0.000000 0.000000 -32.064151 26.581428 -2.640969 -31.759199 21.423220 0.512575 -52.337832 12.016260 -0.961013 0.000000 0.000000 0.000000 
-0.465477 0.817051 -2.403952 2.596464 33.794139 -2.655149 15.642336 -3.647388 -37.427009 -24.935063 3.267429 47.672812 17.148865 29.892045 36.874216 0.000000 0.000000 0.000000 -12.353786 -3.401998 -23.696879 -2.499950 -9.306829 64.948206 -4.767313 -7.885900 -28.049268 0.000000 0.000000 0.000000 -11.907208 -2.672084 39.701783 -12.342615 4.913079 -13.999476 -3.107941 15.549125 21.617232 0.379262 3.891997 -12.305498 0.000000 0.000000 0.000000 -14.333064 -37.242171 9.798108 -8.946495 -37.961115 -0.442415 61.628359 -36.439236 -25.969588 0.000000 0.000000 0.000000 -32.490701 26.020273 -2.919048 -31.233877 21.209125 0.638234 -50.850464 11.401040 -0.497328 0.000000 0.000000 0.000000 
-0.462593 0.818425 -2.401227 2.848792 34.704600 -2.505652 14.672130 -3.999498 -37.635381 -24.147170 2.663299 48.665440 15.377607 28.625999 35.524398 0.000000 0.000000 0.000000 -12.281950 -3.430221 -23.386344 -2.988483 -9.336051 64.932445 -4.832489 -8.967259 -27.311569 0.000000 0.000000 0.000000 -11.871348 -2.985475 40.731777 -12.821512 5.018228 -14.351880 -3.153806 15.951254 21.719370 1.188739 3.605772 -13.348125 0.000000 0.000000 0.000000 -13.482009 -38.081997 10.071956 -8.447061 -38.284729 -0.681410 60.352844 -35.670856 -25.003009 0.000000 0.000000 0.000000 -32.282287 25.851286 -2.907085 -30.597486 20.929303 0.698980 -49.150161 10.893443 -0.173502 0.000000 0.000000 0.000000 
-0.459863 0.819658 -2.398591 3.162983 35.655461 -2.469750 13.901071 -4.266538 -37.539045 -24.170071 2.365186 49.329271 14.849435 28.336370 33.974031 0.000000 0.000000 0.000000 -12.495225 -3.576116 -23.093541 -3.401448 -9.578212 65.451737 -4.901473 -9.639946 -26.520593 0.000000 0.000000 0.000000 -11.686872 -3.255674 41.142328 -13.143132 5.133840 -14.088877 -3.337569 15.957984 21.809910 1.036181 3.869588 -13.966976 0.000000 0.000000 0.000000 -13.163211 -38.798577 10.359660 -7.560555 -38.743591 -0.990295 57.844283 -35.224887 -23.463875 0.000000 0.000000 0.000000 -31.599088 26.253055 -2.615814 -30.244657 20.718267 0.683981 -47.645924 8.878185 0.572471 0.000000 0.000000 0.000000 
